<mxfile host="app.diagrams.net" modified="2020-08-19T19:41:03.125Z" agent="5.0 (Windows)" etag="X1VBZQQBvenCKnQ-0nvD" version="13.6.3" type="github">
  <diagram id="nP82dA17zfGjn-eoHJ25" name="Page-1">
    <mxGraphModel dx="2522" dy="791" grid="1" gridSize="10" guides="1" tooltips="1" connect="1" arrows="1" fold="1" page="1" pageScale="1" pageWidth="1100" pageHeight="850" math="0" shadow="0">
      <root>
        <mxCell id="0" />
        <mxCell id="1" parent="0" />
        <mxCell id="7FycTUrsIdyUeGfir434-1" value="" style="endArrow=classic;html=1;" edge="1" parent="1">
          <mxGeometry relative="1" as="geometry">
            <mxPoint x="130" y="220" as="sourcePoint" />
            <mxPoint x="290" y="220" as="targetPoint" />
          </mxGeometry>
        </mxCell>
        <mxCell id="7FycTUrsIdyUeGfir434-2" value="Input" style="edgeLabel;resizable=0;html=1;align=center;verticalAlign=middle;" connectable="0" vertex="1" parent="7FycTUrsIdyUeGfir434-1">
          <mxGeometry relative="1" as="geometry" />
        </mxCell>
        <mxCell id="7FycTUrsIdyUeGfir434-3" value="" style="rounded=0;whiteSpace=wrap;html=1;" vertex="1" parent="1">
          <mxGeometry x="290" y="190" width="120" height="60" as="geometry" />
        </mxCell>
        <mxCell id="7FycTUrsIdyUeGfir434-4" value="" style="endArrow=classic;html=1;" edge="1" parent="1">
          <mxGeometry relative="1" as="geometry">
            <mxPoint x="410" y="219.5" as="sourcePoint" />
            <mxPoint x="560" y="220" as="targetPoint" />
            <Array as="points">
              <mxPoint x="470" y="219.5" />
            </Array>
          </mxGeometry>
        </mxCell>
        <mxCell id="7FycTUrsIdyUeGfir434-5" value="Output" style="edgeLabel;resizable=0;html=1;align=center;verticalAlign=middle;" connectable="0" vertex="1" parent="7FycTUrsIdyUeGfir434-4">
          <mxGeometry relative="1" as="geometry" />
        </mxCell>
        <mxCell id="7FycTUrsIdyUeGfir434-6" value="" style="shape=image;verticalLabelPosition=bottom;labelBackgroundColor=#ffffff;verticalAlign=top;aspect=fixed;imageAspect=0;image=https://www.alimentarium.org/en/system/files/thumbnails/image/AL027-01_pomme_de_terre_0.jpg;" vertex="1" parent="1">
          <mxGeometry x="60.23000000000002" y="510" width="160" height="80" as="geometry" />
        </mxCell>
        <mxCell id="7FycTUrsIdyUeGfir434-7" value="" style="shape=image;verticalLabelPosition=bottom;labelBackgroundColor=#ffffff;verticalAlign=top;aspect=fixed;imageAspect=0;image=https://res.cloudinary.com/dk-find-out/image/upload/q_80,w_640,f_auto/Limestone-060-RD010-C-SH_by22j3.jpg;" vertex="1" parent="1">
          <mxGeometry x="39.77000000000001" y="340" width="170.23" height="110" as="geometry" />
        </mxCell>
        <mxCell id="7FycTUrsIdyUeGfir434-8" value="Acadia" style="rounded=0;whiteSpace=wrap;html=1;" vertex="1" parent="1">
          <mxGeometry x="214.89000000000001" y="350" width="120" height="60" as="geometry" />
        </mxCell>
        <mxCell id="7FycTUrsIdyUeGfir434-9" value="Pine" style="rounded=0;whiteSpace=wrap;html=1;" vertex="1" parent="1">
          <mxGeometry x="220.23000000000002" y="500" width="120" height="60" as="geometry" />
        </mxCell>
        <mxCell id="7FycTUrsIdyUeGfir434-10" value="" style="shape=image;verticalLabelPosition=bottom;labelBackgroundColor=#ffffff;verticalAlign=top;aspect=fixed;imageAspect=0;image=https://res.cloudinary.com/dk-find-out/image/upload/q_80,w_640,f_auto/Limestone-060-RD010-C-SH_by22j3.jpg;" vertex="1" parent="1">
          <mxGeometry x="29.999999999999993" y="625" width="170.23" height="110" as="geometry" />
        </mxCell>
        <mxCell id="7FycTUrsIdyUeGfir434-11" value="" style="shape=image;verticalLabelPosition=bottom;labelBackgroundColor=#ffffff;verticalAlign=top;aspect=fixed;imageAspect=0;image=https://www.alimentarium.org/en/system/files/thumbnails/image/AL027-01_pomme_de_terre_0.jpg;" vertex="1" parent="1">
          <mxGeometry x="220.23" y="640" width="160" height="80" as="geometry" />
        </mxCell>
        <mxCell id="7FycTUrsIdyUeGfir434-12" value="" style="shape=image;verticalLabelPosition=bottom;labelBackgroundColor=#ffffff;verticalAlign=top;aspect=fixed;imageAspect=0;image=https://res.cloudinary.com/dk-find-out/image/upload/q_80,w_640,f_auto/Limestone-060-RD010-C-SH_by22j3.jpg;" vertex="1" parent="1">
          <mxGeometry x="214.89" y="740" width="170.23" height="110" as="geometry" />
        </mxCell>
        <mxCell id="7FycTUrsIdyUeGfir434-13" value="" style="shape=image;verticalLabelPosition=bottom;labelBackgroundColor=#ffffff;verticalAlign=top;aspect=fixed;imageAspect=0;image=https://www.alimentarium.org/en/system/files/thumbnails/image/AL027-01_pomme_de_terre_0.jpg;" vertex="1" parent="1">
          <mxGeometry x="40.23" y="755" width="160" height="80" as="geometry" />
        </mxCell>
        <mxCell id="7FycTUrsIdyUeGfir434-14" value="Maple" style="text;html=1;strokeColor=none;fillColor=none;align=center;verticalAlign=middle;whiteSpace=wrap;rounded=0;" vertex="1" parent="1">
          <mxGeometry x="440" y="650" width="40" height="20" as="geometry" />
        </mxCell>
        <mxCell id="7FycTUrsIdyUeGfir434-15" value="Birch" style="text;html=1;strokeColor=none;fillColor=none;align=center;verticalAlign=middle;whiteSpace=wrap;rounded=0;" vertex="1" parent="1">
          <mxGeometry x="440" y="755" width="40" height="20" as="geometry" />
        </mxCell>
        <mxCell id="7FycTUrsIdyUeGfir434-16" value="" style="shape=image;verticalLabelPosition=bottom;labelBackgroundColor=#ffffff;verticalAlign=top;aspect=fixed;imageAspect=0;image=https://res.cloudinary.com/dk-find-out/image/upload/q_80,w_640,f_auto/Limestone-060-RD010-C-SH_by22j3.jpg;" vertex="1" parent="1">
          <mxGeometry x="29.99999999999998" y="860" width="170.23" height="110" as="geometry" />
        </mxCell>
        <mxCell id="7FycTUrsIdyUeGfir434-17" value="" style="shape=image;verticalLabelPosition=bottom;labelBackgroundColor=#ffffff;verticalAlign=top;aspect=fixed;imageAspect=0;image=https://res.cloudinary.com/dk-find-out/image/upload/q_80,w_640,f_auto/Limestone-060-RD010-C-SH_by22j3.jpg;" vertex="1" parent="1">
          <mxGeometry x="210" y="860" width="170.23" height="110" as="geometry" />
        </mxCell>
        <mxCell id="7FycTUrsIdyUeGfir434-18" value="" style="shape=image;verticalLabelPosition=bottom;labelBackgroundColor=#ffffff;verticalAlign=top;aspect=fixed;imageAspect=0;image=https://www.alimentarium.org/en/system/files/thumbnails/image/AL027-01_pomme_de_terre_0.jpg;" vertex="1" parent="1">
          <mxGeometry x="40.23" y="1000" width="160" height="80" as="geometry" />
        </mxCell>
        <mxCell id="7FycTUrsIdyUeGfir434-19" value="" style="shape=image;verticalLabelPosition=bottom;labelBackgroundColor=#ffffff;verticalAlign=top;aspect=fixed;imageAspect=0;image=https://www.alimentarium.org/en/system/files/thumbnails/image/AL027-01_pomme_de_terre_0.jpg;" vertex="1" parent="1">
          <mxGeometry x="214.89" y="1000" width="160" height="80" as="geometry" />
        </mxCell>
        <mxCell id="7FycTUrsIdyUeGfir434-20" value="Apple" style="text;html=1;strokeColor=none;fillColor=none;align=center;verticalAlign=middle;whiteSpace=wrap;rounded=0;" vertex="1" parent="1">
          <mxGeometry x="445.11" y="860" width="40" height="20" as="geometry" />
        </mxCell>
        <mxCell id="7FycTUrsIdyUeGfir434-21" value="Palm" style="text;html=1;strokeColor=none;fillColor=none;align=center;verticalAlign=middle;whiteSpace=wrap;rounded=0;" vertex="1" parent="1">
          <mxGeometry x="445.11" y="1000" width="40" height="20" as="geometry" />
        </mxCell>
        <mxCell id="7FycTUrsIdyUeGfir434-22" value="" style="shape=image;verticalLabelPosition=bottom;labelBackgroundColor=#ffffff;verticalAlign=top;aspect=fixed;imageAspect=0;image=https://res.cloudinary.com/dk-find-out/image/upload/q_80,w_640,f_auto/Limestone-060-RD010-C-SH_by22j3.jpg;" vertex="1" parent="1">
          <mxGeometry x="29.999999999999986" y="1110" width="170.23" height="110" as="geometry" />
        </mxCell>
        <mxCell id="7FycTUrsIdyUeGfir434-23" value="" style="shape=image;verticalLabelPosition=bottom;labelBackgroundColor=#ffffff;verticalAlign=top;aspect=fixed;imageAspect=0;image=https://www.alimentarium.org/en/system/files/thumbnails/image/AL027-01_pomme_de_terre_0.jpg;" vertex="1" parent="1">
          <mxGeometry x="210" y="1125" width="160" height="80" as="geometry" />
        </mxCell>
        <mxCell id="7FycTUrsIdyUeGfir434-24" value="" style="shape=image;verticalLabelPosition=bottom;labelBackgroundColor=#ffffff;verticalAlign=top;aspect=fixed;imageAspect=0;image=https://res.cloudinary.com/dk-find-out/image/upload/q_80,w_640,f_auto/Limestone-060-RD010-C-SH_by22j3.jpg;" vertex="1" parent="1">
          <mxGeometry x="374.89" y="1110" width="170.23" height="110" as="geometry" />
        </mxCell>
        <mxCell id="7FycTUrsIdyUeGfir434-25" value="Text" style="text;html=1;strokeColor=none;fillColor=none;align=center;verticalAlign=middle;whiteSpace=wrap;rounded=0;" vertex="1" parent="1">
          <mxGeometry x="560" y="1140" width="40" height="20" as="geometry" />
        </mxCell>
        <mxCell id="7FycTUrsIdyUeGfir434-26" value="True" style="text;html=1;strokeColor=none;fillColor=none;align=center;verticalAlign=middle;whiteSpace=wrap;rounded=0;" vertex="1" parent="1">
          <mxGeometry x="-30" y="360" width="40" height="20" as="geometry" />
        </mxCell>
        <mxCell id="7FycTUrsIdyUeGfir434-27" value="False" style="text;html=1;strokeColor=none;fillColor=none;align=center;verticalAlign=middle;whiteSpace=wrap;rounded=0;" vertex="1" parent="1">
          <mxGeometry x="-30" y="500" width="40" height="20" as="geometry" />
        </mxCell>
        <mxCell id="7FycTUrsIdyUeGfir434-28" value="0" style="text;html=1;strokeColor=none;fillColor=none;align=center;verticalAlign=middle;whiteSpace=wrap;rounded=0;" vertex="1" parent="1">
          <mxGeometry x="-90" y="360" width="40" height="20" as="geometry" />
        </mxCell>
        <mxCell id="7FycTUrsIdyUeGfir434-29" value="1" style="text;html=1;strokeColor=none;fillColor=none;align=center;verticalAlign=middle;whiteSpace=wrap;rounded=0;" vertex="1" parent="1">
          <mxGeometry x="-90" y="500" width="40" height="20" as="geometry" />
        </mxCell>
        <mxCell id="7FycTUrsIdyUeGfir434-31" value="0" style="text;html=1;strokeColor=none;fillColor=none;align=center;verticalAlign=middle;whiteSpace=wrap;rounded=0;" vertex="1" parent="1">
          <mxGeometry x="-0.22999999999998977" y="1280" width="40" height="20" as="geometry" />
        </mxCell>
        <mxCell id="7FycTUrsIdyUeGfir434-32" value="1" style="text;html=1;strokeColor=none;fillColor=none;align=center;verticalAlign=middle;whiteSpace=wrap;rounded=0;" vertex="1" parent="1">
          <mxGeometry x="-0.22999999999998977" y="1310" width="40" height="20" as="geometry" />
        </mxCell>
        <mxCell id="7FycTUrsIdyUeGfir434-33" value="2" style="text;html=1;strokeColor=none;fillColor=none;align=center;verticalAlign=middle;whiteSpace=wrap;rounded=0;" vertex="1" parent="1">
          <mxGeometry x="0.23000000000001025" y="1340" width="40" height="20" as="geometry" />
        </mxCell>
        <mxCell id="7FycTUrsIdyUeGfir434-34" value="3" style="text;html=1;strokeColor=none;fillColor=none;align=center;verticalAlign=middle;whiteSpace=wrap;rounded=0;" vertex="1" parent="1">
          <mxGeometry x="-0.22999999999998977" y="1370" width="40" height="20" as="geometry" />
        </mxCell>
        <mxCell id="7FycTUrsIdyUeGfir434-35" value="4" style="text;html=1;strokeColor=none;fillColor=none;align=center;verticalAlign=middle;whiteSpace=wrap;rounded=0;" vertex="1" parent="1">
          <mxGeometry x="-0.22999999999998977" y="1400" width="40" height="20" as="geometry" />
        </mxCell>
        <mxCell id="7FycTUrsIdyUeGfir434-36" value="5" style="text;html=1;strokeColor=none;fillColor=none;align=center;verticalAlign=middle;whiteSpace=wrap;rounded=0;" vertex="1" parent="1">
          <mxGeometry x="-0.22999999999998977" y="1430" width="40" height="20" as="geometry" />
        </mxCell>
        <mxCell id="7FycTUrsIdyUeGfir434-37" value="6" style="text;html=1;strokeColor=none;fillColor=none;align=center;verticalAlign=middle;whiteSpace=wrap;rounded=0;" vertex="1" parent="1">
          <mxGeometry x="-0.22999999999998977" y="1460" width="40" height="20" as="geometry" />
        </mxCell>
        <mxCell id="7FycTUrsIdyUeGfir434-38" value="7" style="text;html=1;strokeColor=none;fillColor=none;align=center;verticalAlign=middle;whiteSpace=wrap;rounded=0;" vertex="1" parent="1">
          <mxGeometry x="-0.22999999999998977" y="1490" width="40" height="20" as="geometry" />
        </mxCell>
        <mxCell id="7FycTUrsIdyUeGfir434-39" value="8" style="text;html=1;strokeColor=none;fillColor=none;align=center;verticalAlign=middle;whiteSpace=wrap;rounded=0;" vertex="1" parent="1">
          <mxGeometry x="-0.22999999999998977" y="1520" width="40" height="20" as="geometry" />
        </mxCell>
        <mxCell id="7FycTUrsIdyUeGfir434-40" value="9" style="text;html=1;strokeColor=none;fillColor=none;align=center;verticalAlign=middle;whiteSpace=wrap;rounded=0;" vertex="1" parent="1">
          <mxGeometry x="-0.22999999999998977" y="1550" width="40" height="20" as="geometry" />
        </mxCell>
        <mxCell id="7FycTUrsIdyUeGfir434-41" value="10" style="text;html=1;strokeColor=none;fillColor=none;align=center;verticalAlign=middle;whiteSpace=wrap;rounded=0;" vertex="1" parent="1">
          <mxGeometry x="-0.22999999999998977" y="1580" width="40" height="20" as="geometry" />
        </mxCell>
        <mxCell id="7FycTUrsIdyUeGfir434-44" value="Decimal" style="text;html=1;strokeColor=none;fillColor=none;align=center;verticalAlign=middle;whiteSpace=wrap;rounded=0;" vertex="1" parent="1">
          <mxGeometry x="-4.770000000000003" y="1255" width="50" height="20" as="geometry" />
        </mxCell>
        <mxCell id="7FycTUrsIdyUeGfir434-45" value="Binary" style="text;html=1;strokeColor=none;fillColor=none;align=center;verticalAlign=middle;whiteSpace=wrap;rounded=0;" vertex="1" parent="1">
          <mxGeometry x="95.11" y="1255" width="40" height="20" as="geometry" />
        </mxCell>
        <mxCell id="7FycTUrsIdyUeGfir434-46" value="FFFF" style="text;html=1;strokeColor=none;fillColor=none;align=center;verticalAlign=middle;whiteSpace=wrap;rounded=0;" vertex="1" parent="1">
          <mxGeometry x="95.11" y="1280" width="40" height="20" as="geometry" />
        </mxCell>
        <mxCell id="7FycTUrsIdyUeGfir434-47" value="FFFT" style="text;html=1;strokeColor=none;fillColor=none;align=center;verticalAlign=middle;whiteSpace=wrap;rounded=0;" vertex="1" parent="1">
          <mxGeometry x="95.11" y="1310" width="40" height="20" as="geometry" />
        </mxCell>
        <mxCell id="7FycTUrsIdyUeGfir434-48" value="FFTF" style="text;html=1;strokeColor=none;fillColor=none;align=center;verticalAlign=middle;whiteSpace=wrap;rounded=0;" vertex="1" parent="1">
          <mxGeometry x="95.11" y="1340" width="40" height="20" as="geometry" />
        </mxCell>
        <mxCell id="7FycTUrsIdyUeGfir434-49" value="FFTT" style="text;html=1;strokeColor=none;fillColor=none;align=center;verticalAlign=middle;whiteSpace=wrap;rounded=0;" vertex="1" parent="1">
          <mxGeometry x="95.11" y="1370" width="40" height="20" as="geometry" />
        </mxCell>
        <mxCell id="7FycTUrsIdyUeGfir434-50" value="Text" style="text;html=1;strokeColor=none;fillColor=none;align=center;verticalAlign=middle;whiteSpace=wrap;rounded=0;" vertex="1" parent="1">
          <mxGeometry x="95.11" y="1400" width="40" height="20" as="geometry" />
        </mxCell>
        <mxCell id="7FycTUrsIdyUeGfir434-51" value="Text" style="text;html=1;strokeColor=none;fillColor=none;align=center;verticalAlign=middle;whiteSpace=wrap;rounded=0;" vertex="1" parent="1">
          <mxGeometry x="95.11" y="1430" width="40" height="20" as="geometry" />
        </mxCell>
        <mxCell id="7FycTUrsIdyUeGfir434-52" value="Text" style="text;html=1;strokeColor=none;fillColor=none;align=center;verticalAlign=middle;whiteSpace=wrap;rounded=0;" vertex="1" parent="1">
          <mxGeometry x="95.11" y="1460" width="40" height="20" as="geometry" />
        </mxCell>
        <mxCell id="7FycTUrsIdyUeGfir434-53" value="Text" style="text;html=1;strokeColor=none;fillColor=none;align=center;verticalAlign=middle;whiteSpace=wrap;rounded=0;" vertex="1" parent="1">
          <mxGeometry x="95.11" y="1490" width="40" height="20" as="geometry" />
        </mxCell>
        <mxCell id="7FycTUrsIdyUeGfir434-54" value="Text" style="text;html=1;strokeColor=none;fillColor=none;align=center;verticalAlign=middle;whiteSpace=wrap;rounded=0;" vertex="1" parent="1">
          <mxGeometry x="95.11" y="1520" width="40" height="20" as="geometry" />
        </mxCell>
        <mxCell id="7FycTUrsIdyUeGfir434-55" value="Text" style="text;html=1;strokeColor=none;fillColor=none;align=center;verticalAlign=middle;whiteSpace=wrap;rounded=0;" vertex="1" parent="1">
          <mxGeometry x="95.11" y="1550" width="40" height="20" as="geometry" />
        </mxCell>
        <mxCell id="7FycTUrsIdyUeGfir434-56" value="Text" style="text;html=1;strokeColor=none;fillColor=none;align=center;verticalAlign=middle;whiteSpace=wrap;rounded=0;" vertex="1" parent="1">
          <mxGeometry x="95.11" y="1580" width="40" height="20" as="geometry" />
        </mxCell>
        <mxCell id="7FycTUrsIdyUeGfir434-57" value="Base 10" style="text;html=1;strokeColor=none;fillColor=none;align=center;verticalAlign=middle;whiteSpace=wrap;rounded=0;" vertex="1" parent="1">
          <mxGeometry x="-4.770000000000003" y="1230" width="50" height="20" as="geometry" />
        </mxCell>
        <mxCell id="7FycTUrsIdyUeGfir434-58" value="Base 2" style="text;html=1;strokeColor=none;fillColor=none;align=center;verticalAlign=middle;whiteSpace=wrap;rounded=0;" vertex="1" parent="1">
          <mxGeometry x="90.11" y="1230" width="50" height="20" as="geometry" />
        </mxCell>
        <mxCell id="7FycTUrsIdyUeGfir434-59" value="Base 8" style="text;html=1;strokeColor=none;fillColor=none;align=center;verticalAlign=middle;whiteSpace=wrap;rounded=0;" vertex="1" parent="1">
          <mxGeometry x="195.33999999999997" y="1230" width="49.77" height="20" as="geometry" />
        </mxCell>
        <mxCell id="7FycTUrsIdyUeGfir434-60" value="Octal" style="text;html=1;strokeColor=none;fillColor=none;align=center;verticalAlign=middle;whiteSpace=wrap;rounded=0;" vertex="1" parent="1">
          <mxGeometry x="205.11" y="1255" width="40" height="20" as="geometry" />
        </mxCell>
        <mxCell id="7FycTUrsIdyUeGfir434-61" value="Base 16" style="text;html=1;strokeColor=none;fillColor=none;align=center;verticalAlign=middle;whiteSpace=wrap;rounded=0;" vertex="1" parent="1">
          <mxGeometry x="300" y="1230" width="54.88" height="20" as="geometry" />
        </mxCell>
        <mxCell id="7FycTUrsIdyUeGfir434-62" value="Hexidecimal" style="text;html=1;strokeColor=none;fillColor=none;align=center;verticalAlign=middle;whiteSpace=wrap;rounded=0;" vertex="1" parent="1">
          <mxGeometry x="307.44" y="1255" width="40" height="20" as="geometry" />
        </mxCell>
        <mxCell id="7FycTUrsIdyUeGfir434-63" value="1" style="text;html=1;strokeColor=none;fillColor=none;align=center;verticalAlign=middle;whiteSpace=wrap;rounded=0;" vertex="1" parent="1">
          <mxGeometry x="200.23000000000002" y="1310" width="40" height="20" as="geometry" />
        </mxCell>
        <mxCell id="7FycTUrsIdyUeGfir434-64" value="2" style="text;html=1;strokeColor=none;fillColor=none;align=center;verticalAlign=middle;whiteSpace=wrap;rounded=0;" vertex="1" parent="1">
          <mxGeometry x="200.23" y="1340" width="40" height="20" as="geometry" />
        </mxCell>
        <mxCell id="7FycTUrsIdyUeGfir434-66" value="0" style="text;html=1;strokeColor=none;fillColor=none;align=center;verticalAlign=middle;whiteSpace=wrap;rounded=0;" vertex="1" parent="1">
          <mxGeometry x="200.23000000000002" y="1280" width="40" height="20" as="geometry" />
        </mxCell>
        <mxCell id="7FycTUrsIdyUeGfir434-67" value="3" style="text;html=1;strokeColor=none;fillColor=none;align=center;verticalAlign=middle;whiteSpace=wrap;rounded=0;" vertex="1" parent="1">
          <mxGeometry x="200.23000000000002" y="1370" width="40" height="20" as="geometry" />
        </mxCell>
        <mxCell id="7FycTUrsIdyUeGfir434-68" value="4" style="text;html=1;strokeColor=none;fillColor=none;align=center;verticalAlign=middle;whiteSpace=wrap;rounded=0;" vertex="1" parent="1">
          <mxGeometry x="200.23000000000002" y="1400" width="40" height="20" as="geometry" />
        </mxCell>
        <mxCell id="7FycTUrsIdyUeGfir434-69" value="5" style="text;html=1;strokeColor=none;fillColor=none;align=center;verticalAlign=middle;whiteSpace=wrap;rounded=0;" vertex="1" parent="1">
          <mxGeometry x="200.23000000000002" y="1430" width="40" height="20" as="geometry" />
        </mxCell>
        <mxCell id="7FycTUrsIdyUeGfir434-70" value="6" style="text;html=1;strokeColor=none;fillColor=none;align=center;verticalAlign=middle;whiteSpace=wrap;rounded=0;" vertex="1" parent="1">
          <mxGeometry x="200.23000000000002" y="1460" width="40" height="20" as="geometry" />
        </mxCell>
        <mxCell id="7FycTUrsIdyUeGfir434-71" value="7" style="text;html=1;strokeColor=none;fillColor=none;align=center;verticalAlign=middle;whiteSpace=wrap;rounded=0;" vertex="1" parent="1">
          <mxGeometry x="200.23000000000002" y="1490" width="40" height="20" as="geometry" />
        </mxCell>
        <mxCell id="7FycTUrsIdyUeGfir434-73" value="1&amp;nbsp; 0" style="text;html=1;strokeColor=none;fillColor=none;align=center;verticalAlign=middle;whiteSpace=wrap;rounded=0;" vertex="1" parent="1">
          <mxGeometry x="200.23000000000002" y="1520" width="40" height="20" as="geometry" />
        </mxCell>
        <mxCell id="7FycTUrsIdyUeGfir434-74" value="Text" style="text;html=1;strokeColor=none;fillColor=none;align=center;verticalAlign=middle;whiteSpace=wrap;rounded=0;" vertex="1" parent="1">
          <mxGeometry x="205.12" y="1580" width="40" height="20" as="geometry" />
        </mxCell>
        <mxCell id="7FycTUrsIdyUeGfir434-75" value="1&amp;nbsp; 1" style="text;html=1;strokeColor=none;fillColor=none;align=center;verticalAlign=middle;whiteSpace=wrap;rounded=0;" vertex="1" parent="1">
          <mxGeometry x="200.23000000000002" y="1550" width="40" height="20" as="geometry" />
        </mxCell>
        <mxCell id="7FycTUrsIdyUeGfir434-77" value="0" style="text;html=1;strokeColor=none;fillColor=none;align=center;verticalAlign=middle;whiteSpace=wrap;rounded=0;" vertex="1" parent="1">
          <mxGeometry x="307.44" y="1280" width="40" height="20" as="geometry" />
        </mxCell>
        <mxCell id="7FycTUrsIdyUeGfir434-78" value="1" style="text;html=1;strokeColor=none;fillColor=none;align=center;verticalAlign=middle;whiteSpace=wrap;rounded=0;" vertex="1" parent="1">
          <mxGeometry x="307.44" y="1310" width="40" height="20" as="geometry" />
        </mxCell>
        <mxCell id="7FycTUrsIdyUeGfir434-79" value="2" style="text;html=1;strokeColor=none;fillColor=none;align=center;verticalAlign=middle;whiteSpace=wrap;rounded=0;" vertex="1" parent="1">
          <mxGeometry x="307.90000000000003" y="1340" width="40" height="20" as="geometry" />
        </mxCell>
        <mxCell id="7FycTUrsIdyUeGfir434-80" value="3" style="text;html=1;strokeColor=none;fillColor=none;align=center;verticalAlign=middle;whiteSpace=wrap;rounded=0;" vertex="1" parent="1">
          <mxGeometry x="307.44" y="1370" width="40" height="20" as="geometry" />
        </mxCell>
        <mxCell id="7FycTUrsIdyUeGfir434-81" value="4" style="text;html=1;strokeColor=none;fillColor=none;align=center;verticalAlign=middle;whiteSpace=wrap;rounded=0;" vertex="1" parent="1">
          <mxGeometry x="307.44" y="1400" width="40" height="20" as="geometry" />
        </mxCell>
        <mxCell id="7FycTUrsIdyUeGfir434-82" value="5" style="text;html=1;strokeColor=none;fillColor=none;align=center;verticalAlign=middle;whiteSpace=wrap;rounded=0;" vertex="1" parent="1">
          <mxGeometry x="307.44" y="1430" width="40" height="20" as="geometry" />
        </mxCell>
        <mxCell id="7FycTUrsIdyUeGfir434-83" value="6" style="text;html=1;strokeColor=none;fillColor=none;align=center;verticalAlign=middle;whiteSpace=wrap;rounded=0;" vertex="1" parent="1">
          <mxGeometry x="307.44" y="1460" width="40" height="20" as="geometry" />
        </mxCell>
        <mxCell id="7FycTUrsIdyUeGfir434-84" value="7" style="text;html=1;strokeColor=none;fillColor=none;align=center;verticalAlign=middle;whiteSpace=wrap;rounded=0;" vertex="1" parent="1">
          <mxGeometry x="307.44" y="1490" width="40" height="20" as="geometry" />
        </mxCell>
        <mxCell id="7FycTUrsIdyUeGfir434-85" value="8" style="text;html=1;strokeColor=none;fillColor=none;align=center;verticalAlign=middle;whiteSpace=wrap;rounded=0;" vertex="1" parent="1">
          <mxGeometry x="307.44" y="1520" width="40" height="20" as="geometry" />
        </mxCell>
        <mxCell id="7FycTUrsIdyUeGfir434-86" value="9" style="text;html=1;strokeColor=none;fillColor=none;align=center;verticalAlign=middle;whiteSpace=wrap;rounded=0;" vertex="1" parent="1">
          <mxGeometry x="307.44" y="1550" width="40" height="20" as="geometry" />
        </mxCell>
        <mxCell id="7FycTUrsIdyUeGfir434-87" value="A" style="text;html=1;strokeColor=none;fillColor=none;align=center;verticalAlign=middle;whiteSpace=wrap;rounded=0;" vertex="1" parent="1">
          <mxGeometry x="307.44" y="1580" width="40" height="20" as="geometry" />
        </mxCell>
        <mxCell id="7FycTUrsIdyUeGfir434-88" value="" style="endArrow=classic;html=1;" edge="1" parent="1">
          <mxGeometry width="50" height="50" relative="1" as="geometry">
            <mxPoint x="327.48" y="1600" as="sourcePoint" />
            <mxPoint x="327.48" y="1680" as="targetPoint" />
          </mxGeometry>
        </mxCell>
        <mxCell id="7FycTUrsIdyUeGfir434-89" value="F" style="text;html=1;strokeColor=none;fillColor=none;align=center;verticalAlign=middle;whiteSpace=wrap;rounded=0;" vertex="1" parent="1">
          <mxGeometry x="307.90000000000003" y="1680" width="40" height="20" as="geometry" />
        </mxCell>
        <mxCell id="7FycTUrsIdyUeGfir434-90" value="1&amp;nbsp;&amp;nbsp; 0" style="text;html=1;strokeColor=none;fillColor=none;align=center;verticalAlign=middle;whiteSpace=wrap;rounded=0;" vertex="1" parent="1">
          <mxGeometry x="307.44000000000005" y="1700" width="40" height="20" as="geometry" />
        </mxCell>
      </root>
    </mxGraphModel>
  </diagram>
</mxfile>
